<svg width="1200" height="420" viewBox="0 0 1200 420" fill="none" xmlns="http://www.w3.org/2000/svg">
  <defs>
    <linearGradient id="bg" x1="76" y1="34" x2="1124" y2="386" gradientUnits="userSpaceOnUse">
      <stop stop-color="#FBF7EF"/>
      <stop offset="0.52" stop-color="#F3ECDD"/>
      <stop offset="1" stop-color="#F9F9F7"/>
    </linearGradient>
    <linearGradient id="paper" x1="0" y1="0" x2="1" y2="1">
      <stop stop-color="#FFFDF8"/>
      <stop offset="1" stop-color="#F2EBDD"/>
    </linearGradient>
    <filter id="softShadow" x="-40" y="-40" width="320" height="320" filterUnits="userSpaceOnUse">
      <feDropShadow dx="0" dy="22" stdDeviation="20" flood-color="#111111" flood-opacity="0.08"/>
    </filter>
    <filter id="slideShadow" x="-40" y="-40" width="360" height="260" filterUnits="userSpaceOnUse">
      <feDropShadow dx="0" dy="22" stdDeviation="18" flood-color="#111111" flood-opacity="0.08"/>
    </filter>
  </defs>

  <rect width="1200" height="420" rx="28" fill="url(#bg)"/>
  <rect x="1" y="1" width="1198" height="418" rx="27" stroke="#111111" stroke-opacity="0.06" stroke-width="2"/>

  <g opacity="0.08">
    <path d="M52 98H1148" stroke="#111111" stroke-width="2" stroke-dasharray="2 16"/>
    <path d="M52 324H1148" stroke="#111111" stroke-width="2" stroke-dasharray="2 16"/>
  </g>

  <circle cx="168" cy="92" r="78" fill="#EFE2CA" fill-opacity="0.72"/>
  <circle cx="1038" cy="82" r="90" fill="#E6E7E1" fill-opacity="0.82"/>
  <circle cx="978" cy="334" r="78" fill="#EADBC3" fill-opacity="0.52"/>

  <g transform="translate(600 92)">
    <text
      x="0"
      y="0"
      text-anchor="middle"
      fill="#111111"
      font-family="Georgia, 'Times New Roman', serif"
      font-size="68"
      font-weight="700"
      letter-spacing="-1.4"
    >
      PDF2PPT
    </text>
    <text
      x="0"
      y="40"
      text-anchor="middle"
      fill="#57534E"
      font-family="'Segoe UI', 'Trebuchet MS', sans-serif"
      font-size="23"
      font-weight="500"
    >
      Scanned document to editable slide workflow
    </text>
    <text
      x="0"
      y="76"
      text-anchor="middle"
      fill="#111111"
      font-family="'Segoe UI', 'Trebuchet MS', sans-serif"
      font-size="15"
      font-weight="700"
      letter-spacing="3.2"
    >
      OCR · LAYOUT RECONSTRUCTION · DEPLOYMENT READY
    </text>
  </g>

  <g transform="translate(206 184)">
    <g filter="url(#softShadow)">
      <g transform="rotate(-7 94 116)">
        <rect x="8" y="14" width="166" height="210" rx="18" fill="#111111" fill-opacity="0.05"/>
        <path d="M34 0H110L138 28V186C138 199.255 127.255 210 114 210H34C20.7452 210 10 199.255 10 186V24C10 10.7452 20.7452 0 34 0Z" fill="url(#paper)"/>
        <path d="M110 0V24C110 30.6274 115.373 36 122 36H138" fill="#E8DED1"/>
        <rect x="30" y="54" width="56" height="10" rx="5" fill="#111111"/>
        <rect x="30" y="74" width="88" height="10" rx="5" fill="#57534E"/>
        <rect x="30" y="94" width="74" height="10" rx="5" fill="#78716C"/>
        <rect x="24" y="48" width="78" height="24" rx="8" stroke="#0F766E" stroke-width="2.5" stroke-dasharray="6 4"/>
        <rect x="30" y="126" width="40" height="34" rx="8" fill="#F5F1E8"/>
        <rect x="80" y="126" width="46" height="34" rx="8" fill="#E7E5E4"/>
      </g>
    </g>

    <path d="M214 90C260 90 294 74 324 42" stroke="#111111" stroke-width="7" stroke-linecap="round"/>
    <path d="M307 36L328 38L316 54" stroke="#111111" stroke-width="7" stroke-linecap="round" stroke-linejoin="round"/>

    <g filter="url(#slideShadow)" transform="translate(338 2)">
      <rect x="18" y="24" width="222" height="152" rx="22" fill="#111111" fill-opacity="0.07"/>
      <rect x="0" y="0" width="238" height="166" rx="24" fill="#FFFDF8"/>
      <rect x="0" y="0" width="238" height="22" rx="24" fill="#111111"/>
      <circle cx="18" cy="11" r="4" fill="#F5F5F4"/>
      <circle cx="32" cy="11" r="4" fill="#D6D3D1"/>
      <circle cx="46" cy="11" r="4" fill="#E7E5E4"/>
      <rect x="28" y="42" width="82" height="10" rx="5" fill="#111111"/>
      <rect x="28" y="62" width="136" height="10" rx="5" fill="#57534E"/>
      <rect x="28" y="86" width="64" height="58" rx="12" fill="#F4F4F3"/>
      <rect x="102" y="86" width="98" height="12" rx="6" fill="#D6D3D1"/>
      <rect x="102" y="106" width="84" height="12" rx="6" fill="#D6D3D1"/>
      <rect x="102" y="126" width="68" height="12" rx="6" fill="#D6D3D1"/>
      <rect x="28" y="86" width="64" height="58" rx="12" stroke="#111111" stroke-width="2"/>
      <rect x="42" y="98" width="18" height="4" rx="2" fill="#0F766E"/>
      <rect x="42" y="108" width="28" height="4" rx="2" fill="#0F766E" fill-opacity="0.7"/>
    </g>
  </g>
</svg>
