<svg width="128" height="128" viewBox="0 0 128 128" fill="none" xmlns="http://www.w3.org/2000/svg">
  <defs>
    <linearGradient id="bg" x1="20" y1="12" x2="108" y2="116" gradientUnits="userSpaceOnUse">
      <stop stop-color="#0F766E"/>
      <stop offset="1" stop-color="#2563EB"/>
    </linearGradient>
    <linearGradient id="card" x1="36" y1="28" x2="90" y2="86" gradientUnits="userSpaceOnUse">
      <stop stop-color="#F8FAFC"/>
      <stop offset="1" stop-color="#DBEAFE"/>
    </linearGradient>
  </defs>

  <rect x="8" y="8" width="112" height="112" rx="28" fill="url(#bg)"/>
  <circle cx="102" cy="28" r="12" fill="#93C5FD" fill-opacity="0.35"/>
  <circle cx="24" cy="100" r="16" fill="#5EEAD4" fill-opacity="0.18"/>

  <g transform="translate(26 24)">
    <rect x="0" y="8" width="44" height="58" rx="8" fill="#0B1220" fill-opacity="0.16"/>
    <path d="M10 0H36L50 14V58C50 62.4183 46.4183 66 42 66H10C5.58172 66 2 62.4183 2 58V8C2 3.58172 5.58172 0 10 0Z" fill="url(#card)"/>
    <path d="M36 0V10C36 13.3137 38.6863 16 42 16H50" fill="#BFDBFE"/>
    <rect x="12" y="20" width="18" height="4" rx="2" fill="#0F766E"/>
    <rect x="12" y="29" width="28" height="4" rx="2" fill="#14B8A6" fill-opacity="0.95"/>
    <rect x="12" y="38" width="22" height="4" rx="2" fill="#2563EB" fill-opacity="0.88"/>
    <rect x="10" y="17" width="24" height="12" rx="4" stroke="#2DD4BF" stroke-width="2" stroke-dasharray="4 3"/>
  </g>

  <g transform="translate(72 42)">
    <rect x="0" y="6" width="30" height="22" rx="6" fill="#0B1220" fill-opacity="0.18"/>
    <rect x="4" y="0" width="34" height="28" rx="8" fill="#F8FAFC"/>
    <rect x="10" y="6" width="16" height="3" rx="1.5" fill="#0F766E"/>
    <rect x="10" y="12" width="20" height="3" rx="1.5" fill="#2563EB" fill-opacity="0.9"/>
    <rect x="10" y="18" width="12" height="3" rx="1.5" fill="#94A3B8"/>
  </g>

  <path d="M63 63C70 63 75 59 78 52" stroke="#F8FAFC" stroke-width="4" stroke-linecap="round"/>
  <path d="M75 48L80 50L77 55" stroke="#F8FAFC" stroke-width="4" stroke-linecap="round" stroke-linejoin="round"/>
</svg>
